# xmcd CD database file
#
# Track frame offsets:
#	150
#	14192
#	31250
#	46530
#	58850
#	74137
#	91897
#	107370
#	122142
#	138610
#	152570
#	169590
#	185835
#	200780
#	213890
#	226995
#	243043
#	259830
#	286353
#
# Disc length: 4425 seconds
#
# Revision: 0
# Processed by: cddbd v1.4PL0 Copyright (c) Steve Scherf et al.
# Submitted via: CDex 1.50beta10
#
DISCID=14114713
DTITLE=Various Artist - Peace Through Music
DYEAR=1999
DGENRE=New Age
TTITLE0=Dean Evenson - Floating On The Earth
TTITLE1=Tom Barabas - Moon Dust
TTITLE2=Dean Evenson - Deep Forest
TTITLE3=Cha-Das-Ska-Dev - Terra
TTITLE4=Dean Evenson - Mystic Mountain
TTITLE5=Lorellei - Mone Azure
TTITLE6=Dean Evenson - Memory Of Monet
TTITLE7=Tom Barabas - Journey
TTITLE8=Daniel Paul - Magic Island
TTITLE9=Dean Evenson - Night Waves
TTITLE10=Scott Huckabay - Sister Ritual
TTITLE11=Evenson/Barabas - Change The Stream
TTITLE12=Sunyata - She Sleeps
TTITLE13=Tom Barabas - Blue Horizon
TTITLE14=Dean Evenson - Emerald Sea
TTITLE15=Tom Barabas - A Rose After Dark
TTITLE16=The Falai Lama - Green Tara Mantra
TTITLE17=Scott Huckabay - Days Of Departure
TTITLE18=Datatrack 19
EXTD=YEAR: 1999
EXTT0=
EXTT1=
EXTT2=
EXTT3=
EXTT4=
EXTT5=
EXTT6=
EXTT7=
EXTT8=
EXTT9=
EXTT10=
EXTT11=
EXTT12=
EXTT13=
EXTT14=
EXTT15=
EXTT16=
EXTT17=
EXTT18=
PLAYORDER=
